<svg xmlns="http://www.w3.org/2000/svg" version="1.1" xmlnsXlink="http://www.w3.org/1999/xlink" xmlnsSvgjs="http://svgjs.dev/svgjs" width="2000" height="1500" viewBox="0 0 2000 1500"><rect width="2000" height="1500" fill="#ffffff"></rect><g transform="matrix(0.75,0,0,0.75,249.090909090909,617.7244179924735)"><svg viewBox="0 0 396 70" data-background-color="#ffffff" preserveAspectRatio="xMidYMid meet" height="353" width="2000" xmlns="http://www.w3.org/2000/svg" xmlnsXlink="http://www.w3.org/1999/xlink"><g id="tight-bounds" transform="matrix(1,0,0,1,0.2400000000000091,-0.026286154761635316)"><svg viewBox="0 0 395.52 70.05257230952324" height="70.05257230952324" width="395.52"><g><svg viewBox="0 0 556.3395029073324 98.53613788445621" height="70.05257230952324" width="395.52"><g><rect width="6.429877426710967" height="85.55959874193013" x="137.55748562012155" y="6.488269571263039" fill="#000000" opacity="1" stroke-width="0" stroke="transparent" fill-opacity="1" class="rect-yte-0" data-fill-palette-color="primary" rx="1%" id="yte-0" data-palette-color="#0074d9"></rect></g><g transform="matrix(1,0,0,1,160.81950290733243,13.618236133090548)"><svg viewBox="0 0 395.52 71.29966561827511" height="71.29966561827511" width="395.52"><g id="textblocktransform"><svg viewBox="0 0 395.52 71.29966561827511" height="71.29966561827511" width="395.52" id="textblock"><g><svg viewBox="0 0 395.52 71.29966561827511" height="71.29966561827511" width="395.52"><g transform="matrix(1,0,0,1,0,0)"><svg width="395.52" viewBox="2.65 -40.8 302.03000000000003 54.449999999999996" height="71.29966561827511" data-palette-color="#0074d9"><path d="M34.8-7.4L34.8-7.4Q35.65-6.85 36.1-5.5L36.1-5.5Q29.15 1 22 1L22 1Q17.1 1 13.45-0.78 9.8-2.55 7.4-5.48 5-8.4 3.83-12.13 2.65-15.85 2.65-19.75L2.65-19.75Q2.65-23.7 4-27.48 5.35-31.25 7.95-34.23 10.55-37.2 14.38-39 18.2-40.8 23.1-40.8L23.1-40.8Q29.55-40.8 35.1-37.8L35.1-37.8 35.1-28.2Q34.2-28.05 33.5-28.05L33.5-28.05Q32.75-28.05 32.25-28.2L32.25-28.2 30.65-36.55Q27.6-38.55 22.5-38.55L22.5-38.55Q19.35-38.55 16.82-37.13 14.3-35.7 12.53-33.27 10.75-30.85 9.8-27.58 8.85-24.3 8.85-20.6L8.85-20.6Q8.85-16.65 9.78-13.3 10.7-9.95 12.4-7.5 14.1-5.05 16.53-3.68 18.95-2.3 21.95-2.3L21.95-2.3Q25.55-2.3 28.9-3.7 32.25-5.1 34.8-7.4ZM44.8-6.65L44.8-6.65Q44.8-4.05 45.75-2.98 46.7-1.9 48.75-1.9L48.75-1.9Q50.25-1.9 52.07-2.83 53.9-3.75 55.45-5.5L55.45-5.5 55.45-13.3Q50.3-13 47.55-11.48 44.8-9.95 44.8-6.65ZM55.45-15.1L55.45-15.1 55.45-17.65Q55.45-21.9 54.47-23.83 53.5-25.75 51.25-25.75L51.25-25.75Q48.95-25.75 47.55-24.28 46.15-22.8 45.65-19.25L45.65-19.25Q44.05-18.9 43.3-18.9L43.3-18.9Q41.35-18.9 41-20.3L41-20.3Q41-23.7 43.95-25.7 46.9-27.7 51.3-27.7L51.3-27.7Q56.15-27.7 58.17-25.73 60.2-23.75 60.2-18.65L60.2-18.65 60.2-4.55Q60.2-3.3 60.35-2.4L60.35-2.4 64.3-1.9Q64.5-1.15 64.3 0L64.3 0Q60.75 0.15 56.75 0.7L56.75 0.7Q56.35 0.3 56.25-0.3L56.25-0.3 56-3.75Q51.85 1 46.75 1L46.75 1Q43.6 1 41.82-0.8 40.05-2.6 40.05-5.65L40.05-5.65Q40.05-10.25 44.22-12.6 48.4-14.95 55.45-15.1ZM75.4-26.7L75.4-26.7 75.3-21.55Q76.55-23.85 78.77-25.78 81-27.7 83-27.7L83-27.7Q84.55-27.7 85.75-27.35L85.75-27.35Q86.15-26.7 86.15-25.65L86.15-25.65Q86.15-24 85.45-22.35L85.45-22.35Q83.65-22.85 82-22.85L82-22.85Q77.9-22.85 75.25-18.85L75.25-18.85 75.15-10.1 75.15-2.55 80.7-1.8Q80.9-1 80.7 0.2L80.7 0.2Q77.55 0.05 73.5 0.05L73.5 0.05Q70.45 0.05 66.25 0.15L66.25 0.15Q65.95-0.8 66.25-1.8L66.25-1.8 70.2-2.35Q70.4-5.1 70.4-8.7L70.4-8.7 70.4-22.4Q70.4-23.4 70.25-24.25L70.25-24.25 66.3-24.75Q66.09-25.5 66.3-26.65L66.3-26.65Q69.75-26.9 74.9-27.7L74.9-27.7Q75.34-27.2 75.4-26.7ZM97.54-31.65L97.54-31.65 97.54-2.2 101.59-1.7Q101.79-0.95 101.59 0.15L101.59 0.15Q98.44 0 94.74 0L94.74 0Q92.04 0 87.84 0.1L87.84 0.1Q87.54-0.8 87.84-1.7L87.84-1.7 91.99-2.3Q92.19-4.2 92.19-8.15L92.19-8.15 92.19-37.6 88.14-38.1Q87.94-38.85 88.14-39.95L88.14-39.95Q90.89-39.75 94.99-39.75L94.99-39.75Q98.64-39.75 101.89-39.9L101.89-39.9Q102.19-39 101.89-38.1L101.89-38.1 97.74-37.5Q97.54-35.6 97.54-31.65ZM126.54-8.7L126.54-17.85Q126.54-21.7 125.52-23.25 124.49-24.8 122.09-24.8L122.09-24.8Q118.39-24.8 114.64-19.25L114.64-19.25 114.64-2.55 118.69-1.8Q118.89-1 118.69 0.2L118.69 0.2Q115.54 0.05 112.24 0.05L112.24 0.05Q109.94 0.05 105.74 0.15L105.74 0.15Q105.44-0.8 105.74-1.8L105.74-1.8 109.69-2.35Q109.89-5.1 109.89-8.7L109.89-8.7 109.89-22.4Q109.89-23.4 109.74-24.25L109.74-24.25 105.79-24.75Q105.59-25.5 105.79-26.65L105.79-26.65Q109.24-26.9 114.39-27.7L114.39-27.7Q114.84-27.2 114.89-26.7L114.89-26.7Q114.64-25.4 114.64-22.25L114.64-22.25Q118.59-27.7 123.54-27.7L123.54-27.7Q131.29-27.7 131.29-20.35L131.29-20.35 131.29-2.55 135.34-1.8Q135.54-1 135.34 0.2L135.34 0.2Q132.19 0.05 128.89 0.05L128.89 0.05Q126.59 0.05 122.39 0.15L122.39 0.15Q122.09-0.8 122.39-1.8L122.39-1.8 126.34-2.35Q126.54-5.1 126.54-8.7L126.54-8.7ZM149.94-40.8L149.94-40.8Q157.39-40.8 157.39-34.9L157.39-34.9Q156.34-33.8 152.39-33.85L152.39-33.85Q151.89-39.1 149.84-39.1L149.84-39.1Q147.94-39.1 147.16-36.08 146.39-33.05 146.39-25.05L146.39-25.05 153.44-25.05Q153.74-24.1 153.44-23.1L153.44-23.1 146.39-22.05 146.39-2.8 152.44-1.8Q152.74-0.8 152.44 0.2L152.44 0.2Q149.29 0.05 144.69 0.05L144.69 0.05Q141.99 0.05 137.79 0.15L137.79 0.15Q137.39-0.75 137.79-1.8L137.79-1.8 141.44-2.6Q141.64-5.25 141.64-8.7L141.64-8.7 141.64-22.55 138.09-23.1Q137.79-24.1 138.09-25.05L138.09-25.05 141.64-25.05 141.64-28.45Q141.64-31.45 142.49-34.18 143.34-36.9 145.31-38.85 147.29-40.8 149.94-40.8ZM156.69-13.3L156.69-13.3Q156.69-16.3 157.56-18.93 158.44-21.55 160.09-23.5 161.73-25.45 164.06-26.58 166.38-27.7 169.28-27.7L169.28-27.7Q172.13-27.7 174.49-26.58 176.84-25.45 178.51-23.5 180.19-21.55 181.09-18.93 181.99-16.3 181.99-13.3L181.99-13.3Q181.99-10.2 181.06-7.6 180.13-5 178.46-3.08 176.78-1.15 174.44-0.08 172.09 1 169.28 1L169.28 1Q166.34 1 164.01-0.05 161.69-1.1 160.06-3 158.44-4.9 157.56-7.53 156.69-10.15 156.69-13.3ZM163.98-22.5L163.98-22.5Q161.84-19.45 161.84-13.3L161.84-13.3Q161.84-10.25 162.41-7.95 162.98-5.65 163.98-4.13 164.98-2.6 166.34-1.85 167.69-1.1 169.28-1.1L169.28-1.1Q170.84-1.1 172.23-1.85 173.63-2.6 174.63-4.13 175.63-5.65 176.24-7.95 176.84-10.25 176.84-13.3L176.84-13.3Q176.84-16.35 176.24-18.68 175.63-21 174.61-22.53 173.59-24.05 172.21-24.83 170.84-25.6 169.28-25.6L169.28-25.6Q166.19-25.6 163.98-22.5ZM190.68-11.55L192.28-3.45Q195.18-1.45 200.43-1.45L200.43-1.45Q203.98-1.45 205.76-3.5 207.53-5.55 207.53-8.4L207.53-8.4Q207.53-9.9 207.28-10.93 207.03-11.95 206.21-13.25 205.38-14.55 203.58-15.85 201.78-17.15 198.88-18.6L198.88-18.6Q195.48-20.3 193.38-21.8 191.28-23.3 190.23-24.9 189.18-26.5 188.83-27.95 188.48-29.4 188.48-31.55L188.48-31.55Q188.48-35.95 192.01-38.38 195.53-40.8 200.33-40.8L200.33-40.8Q206.28-40.8 211.83-37.8L211.83-37.8 211.83-28.2Q210.13-27.9 208.98-28.2L208.98-28.2 207.38-36.85Q204.18-38.6 200.23-38.6L200.23-38.6Q197.58-38.6 195.76-37.02 193.93-35.45 193.93-32.6L193.93-32.6Q193.93-31 194.13-30.1 194.33-29.2 195.13-27.98 195.93-26.75 197.78-25.53 199.63-24.3 202.73-22.8L202.73-22.8Q213.43-17.6 213.43-10.4L213.43-10.4Q213.43-5.3 209.53-2.15 205.63 1 199.33 1L199.33 1Q193.08 1 187.83-1.95L187.83-1.95 187.83-11.55Q189.53-11.85 190.68-11.55L190.68-11.55ZM239.08-8.7L239.08-17.85Q239.08-21.7 238.06-23.25 237.03-24.8 234.63-24.8L234.63-24.8Q230.93-24.8 227.18-19.25L227.18-19.25 227.18-2.55 231.23-1.8Q231.43-1 231.23 0.2L231.23 0.2Q228.08 0.05 224.78 0.05L224.78 0.05Q222.48 0.05 218.28 0.15L218.28 0.15Q217.98-0.8 218.28-1.8L218.28-1.8 222.23-2.35Q222.43-5.1 222.43-8.7L222.43-8.7 222.43-22.4Q222.43-23.4 222.28-24.25L222.28-24.25 218.33-24.75Q218.13-25.5 218.33-26.65L218.33-26.65Q221.78-26.9 226.93-27.7L226.93-27.7Q227.38-27.2 227.43-26.7L227.43-26.7Q227.18-25.4 227.18-22.25L227.18-22.25Q231.13-27.7 236.08-27.7L236.08-27.7Q243.83-27.7 243.83-20.35L243.83-20.35 243.83-2.55 247.88-1.8Q248.08-1 247.88 0.2L247.88 0.2Q244.73 0.05 241.43 0.05L241.43 0.05Q239.13 0.05 234.93 0.15L234.93 0.15Q234.63-0.8 234.93-1.8L234.93-1.8 238.88-2.35Q239.08-5.1 239.08-8.7L239.08-8.7ZM255.38-6.65L255.38-6.65Q255.38-4.05 256.33-2.98 257.28-1.9 259.33-1.9L259.33-1.9Q260.83-1.9 262.65-2.83 264.48-3.75 266.03-5.5L266.03-5.5 266.03-13.3Q260.88-13 258.13-11.48 255.38-9.95 255.38-6.65ZM266.03-15.1L266.03-15.1 266.03-17.65Q266.03-21.9 265.05-23.83 264.08-25.75 261.83-25.75L261.83-25.75Q259.53-25.75 258.13-24.28 256.73-22.8 256.23-19.25L256.23-19.25Q254.63-18.9 253.88-18.9L253.88-18.9Q251.93-18.9 251.58-20.3L251.58-20.3Q251.58-23.7 254.53-25.7 257.48-27.7 261.88-27.7L261.88-27.7Q266.73-27.7 268.75-25.73 270.78-23.75 270.78-18.65L270.78-18.65 270.78-4.55Q270.78-3.3 270.93-2.4L270.93-2.4 274.88-1.9Q275.08-1.15 274.88 0L274.88 0Q271.33 0.15 267.33 0.7L267.33 0.7Q266.93 0.3 266.83-0.3L266.83-0.3 266.58-3.75Q262.43 1 257.33 1L257.33 1Q254.18 1 252.4-0.8 250.63-2.6 250.63-5.65L250.63-5.65Q250.63-10.25 254.8-12.6 258.98-14.95 266.03-15.1ZM292.22-1.7L292.22-1.7Q295.52-1.7 297.45-4.9 299.38-8.1 299.38-14.55L299.38-14.55Q299.38-19.5 297.55-22.1 295.72-24.7 292.72-24.7L292.72-24.7Q288.32-24.7 285.13-20.45L285.13-20.45 285.13-4.9Q287.93-1.7 292.22-1.7ZM280.38 4.75L280.38-19.55Q280.38-22.9 280.22-24.25L280.22-24.25 276.27-24.75Q276.13-25.55 276.27-26.65L276.27-26.65Q279.77-26.9 284.88-27.7L284.88-27.7Q285.32-27.25 285.38-26.7L285.38-26.7Q285.13-24.95 285.13-23L285.13-23Q289.18-27.7 294.43-27.7L294.43-27.7Q298.82-27.7 301.75-24.05 304.68-20.4 304.68-14.4L304.68-14.4Q304.68-7.45 300.85-3.23 297.02 1 291.82 1L291.82 1Q288.18 1 285.13-1.35L285.13-1.35 285.13 10.9 290.18 11.65Q290.38 12.45 290.18 13.65L290.18 13.65Q287.02 13.5 283.22 13.5L283.22 13.5Q280.43 13.5 276.22 13.6L276.22 13.6Q275.93 12.6 276.22 11.65L276.22 11.65 280.18 11.1Q280.38 8.35 280.38 4.75L280.38 4.75Z" opacity="1" transform="matrix(1,0,0,1,0,0)" fill="#000000" class="wordmark-text-0" data-fill-palette-color="primary" id="text-0"></path></svg></g></svg></g></svg></g></svg></g><g><svg viewBox="0 0 120.72534575962163 98.53613788445621" height="98.53613788445621" width="120.72534575962163"><g><svg xmlns="http://www.w3.org/2000/svg" xmlnsXlink="http://www.w3.org/1999/xlink" version="1.0" x="0" y="0" viewBox="7.926 15.659325256977851 84.148 68.68167474302214" enable-background="new 0 0 100 100" xml:space="preserve" height="98.53613788445621" width="120.72534575962163" class="icon-icon-0" data-fill-palette-color="accent" id="icon-0"><path d="M50.792 30.927H45.11C45.11 27.99 45.768 24.453 43.115 24.453H28.858C26.204 24.453 26.862 27.989 26.862 30.927H17.825C12.41 30.927 7.926 35.332 7.926 40.751V74.518C7.926 79.938 12.41 84.341 17.826 84.341H82.174C87.588 84.34 92.074 79.938 92.074 74.518V40.751C92.074 38.049 90.957 35.59 89.16 33.81 86.008 30.692 83.01 30.928 79.178 30.928V29.744C79.178 17.397 63.985 10.869 54.968 19.8 51.72 23.017 50.791 26.426 50.791 30.927M68.415 39.663A17.85 17.85 0 0 1 79.872 47.006L79.867 47.01C84.745 54.007 83.85 63.463 77.797 69.459 69.102 78.069 54.371 75.549 49.095 64.553 42.936 51.718 54.056 37.073 68.415 39.663M19.162 38.695C21.332 38.695 24.417 38.163 24.417 40.69V71.904C24.417 74.43 21.333 73.898 19.162 73.898A1.995 1.995 0 0 1 17.168 71.904V40.69C17.168 39.588 18.06 38.695 19.162 38.695" fill="#000000" data-fill-palette-color="accent"></path></svg></g></svg></g></svg></g><defs></defs></svg><rect width="395.52" height="70.05257230952324" fill="none" stroke="none" visibility="hidden"></rect></g></svg></g></svg>